# xmcd CD database file
#
# Track frame offsets:
#	150
#	5117
#	22121
#	23758
#	32776
#	49141
#	71250
#	92882
#	110942
#	126054
#	130082
#	143439
#	146400
#
# Disc length: 2254 seconds
#
# Revision: 1
# Processed by: cddbd v1.5.2PL0 Copyright (c) Steve Scherf et al.
# Submitted via: CDex 1.70beta3
#
DISCID=b408cc0d
DTITLE=サイドプロテア - 未来のエネルギー
DYEAR=2004
DGENRE=Vocal
TTITLE0=茶太/ Cheap Candy
TTITLE1=茶太/ エネルギー
TTITLE2=みらゐ - E.F.H
TTITLE3=茶太/ 45.3rpm(reverse)
TTITLE4=みずさわゆうき - チョウフプラスチック
TTITLE5=茶太/ トレインフロムトーキョー
TTITLE6=みずさわゆうき - 空飛ぶクルマ
TTITLE7=茶太/ Channel Three
TTITLE8=みらゐ - Technology
TTITLE9=みらゐ - 本日のランチ
TTITLE10=みらゐ - South Tale
TTITLE11=茶太, みずさわゆうき/ 未来の女子高生
TTITLE12=茶太/ インターネット
EXTD=YEAR: 2004
EXTT0=
EXTT1=
EXTT2=
EXTT3=
EXTT4=
EXTT5=
EXTT6=
EXTT7=
EXTT8=
EXTT9=
EXTT10=
EXTT11=
EXTT12=
PLAYORDER=
